<svg version="1.1" id="Layer_1" xmlns="http://www.w3.org/2000/svg" xmlns:xlink="http://www.w3.org/1999/xlink" x="0px" y="0px"
	 width="100%" viewBox="0 0 1024 1024" enable-background="new 0 0 1024 1024" xml:space="preserve">
<path fill="none" opacity="1.000000" stroke="#000000" stroke-linecap="round" stroke-linejoin="round" stroke-width="17.000000"
	d="
M252.249985,666.000000 
	C252.166656,671.333313 251.879044,676.673279 252.051575,681.998352 
	C252.268600,688.696899 255.814682,691.950928 262.500061,691.990234 
	C269.833160,692.033325 277.166931,692.039185 284.499939,691.989197 
	C292.144623,691.937134 295.932678,695.821777 295.637177,703.005615 
	C295.137512,715.151794 295.330414,727.336243 295.541595,739.499268 
	C295.825897,755.875427 305.488586,769.086426 321.515350,772.936157 
	C324.742554,773.711365 328.166565,773.956970 331.500000,773.958191 
	C467.166656,774.007080 602.833313,773.973022 738.500000,774.028015 
	C759.765137,774.036621 774.037292,759.020630 774.028870,738.500000 
	C773.973145,602.500000 773.946533,466.499969 774.056946,330.500061 
	C774.073792,309.794220 758.969421,294.695343 738.499756,294.980804 
	C730.168030,295.096985 721.833313,295.000000 713.500000,295.000000 
"/>
<path fill="none" opacity="1.000000" stroke="#000000" stroke-linecap="round" stroke-linejoin="round" stroke-width="17.000000"
	d="
M686.000000,295.500000 
	C669.342224,294.446899 652.665955,295.044739 636.000000,295.033630 
	C534.833313,294.966187 433.666656,295.021149 332.500000,294.980042 
	C314.761078,294.972839 303.718048,302.664337 297.574432,317.530762 
	C296.032440,321.262115 295.495636,325.385681 295.497375,329.500000 
	C295.503967,345.000000 295.511322,360.500000 295.494934,376.000000 
	C295.487488,383.073059 292.073090,386.478088 285.000000,386.495789 
	C277.500031,386.514526 269.980103,386.838654 262.505890,386.399567 
	C255.768402,386.003723 252.169769,389.691040 252.023544,397.000458 
	C251.906891,402.831482 252.000000,408.666656 252.000000,414.500000 
	C252.000000,434.833344 251.996017,455.166656 252.001740,475.500000 
	C252.004425,485.032898 254.979980,488.000000 264.500000,488.000000 
	C271.333344,488.000000 278.167664,487.926666 284.999725,488.019501 
	C292.634827,488.123230 295.497650,491.044800 295.498627,498.500000 
	C295.502136,525.500000 295.502319,552.500000 295.498566,579.500000 
	C295.497498,587.258606 292.258606,590.493286 284.500000,590.498901 
	C277.333344,590.504089 270.166656,590.500000 263.000000,590.500000 
	C255.380310,590.500000 252.347748,592.647156 252.120346,600.003723 
	C251.754990,611.823181 252.166656,623.666687 252.249985,635.500000 
"/>
<path fill="none" opacity="1.000000" stroke="#000000" stroke-linecap="round" stroke-linejoin="round" stroke-width="16.000000"
	d="
M609.500000,473.250000 
	C610.423523,474.068665 611.748291,473.110291 611.910156,472.922546 
	C632.349976,449.215973 655.894409,428.556122 677.506104,406.005829 
	C681.763123,401.563904 682.941589,396.114380 681.390991,390.530273 
	C678.556885,380.324097 667.405579,376.627563 659.055786,381.104034 
	C655.674377,382.916901 653.176208,386.128479 650.413757,388.914490 
	C631.578430,407.911041 612.546265,426.713715 593.465881,445.465240 
	C588.996887,449.857208 586.749878,449.902161 581.510376,446.484100 
	C569.280212,438.505554 555.815613,433.361908 541.478333,431.685211 
	C522.304932,429.442902 503.373322,431.113770 485.477753,439.452271 
	C480.528168,441.758575 475.727386,444.296631 471.002136,447.003723 
	C466.171387,449.771332 464.487823,449.758392 460.528748,445.969940 
	C455.080627,440.756561 449.833344,435.333344 444.500000,430.000000 
	C429.333344,414.833344 414.157806,399.675476 399.007416,384.492615 
	C395.948578,381.427216 392.581696,379.641785 388.007538,379.372223 
	C380.633362,378.937714 376.091644,382.801422 373.112244,388.558105 
	C369.813324,394.932159 371.517212,400.980652 376.511261,405.988770 
	C395.983673,425.516266 415.516235,444.983826 434.992554,464.507446 
	C443.536865,473.072510 443.387421,471.648041 437.006592,483.003693 
	C430.520508,494.546783 426.271484,506.759521 424.379303,519.982727 
	C421.702209,538.691284 424.045197,556.602112 431.058868,573.976257 
	C433.005737,578.798950 435.476898,583.440552 438.040863,587.976929 
	C442.878845,596.536621 443.167175,596.308472 436.493835,602.993835 
	C417.178040,622.344666 397.831299,641.664673 378.502472,661.002502 
	C375.906769,663.599426 373.417725,666.114319 372.410370,669.976624 
	C370.660065,676.687805 372.640991,682.416809 379.000000,687.000000 
	C383.897583,690.529846 391.912659,690.576843 396.478546,686.972839 
	C397.948547,685.812622 399.166595,684.333313 400.499939,682.999939 
	C419.499939,663.999939 438.499969,645.000000 457.499969,626.000000 
	C458.666656,624.833313 459.781799,623.608948 461.010162,622.511414 
	C464.014923,619.826843 466.773956,619.567932 470.574371,621.877625 
	C481.120911,628.287109 492.317810,633.535034 504.511292,635.942749 
	C528.291504,640.638428 551.301636,638.763367 573.025024,627.046387 
	C576.049927,625.414856 579.199158,624.142578 582.069885,622.098083 
	C586.327393,619.065918 589.196350,619.802124 593.518250,623.478516 
	C600.909424,629.765625 607.124939,637.207825 613.985291,644.014771 
	C627.036011,656.963684 639.924255,670.077332 653.053345,682.945557 
	C656.328430,686.155640 659.550598,689.406250 664.992615,689.659058 
	C672.596497,690.012451 677.467773,686.431213 680.928223,680.458435 
	C683.676880,675.714172 681.637024,667.183533 676.985168,662.514771 
	C657.687134,643.146301 638.321594,623.844971 619.016235,604.483826 
	C616.849243,602.310486 614.394531,600.398315 612.935181,597.533020 
	C612.347229,596.378723 611.274719,595.117249 609.500000,595.750000 
"/>
<path fill="none" opacity="1.000000" stroke="#000000" stroke-linecap="round" stroke-linejoin="round" stroke-width="16.000000"
	d="
M612.000000,473.500000 
	C612.833313,475.333344 613.461060,477.297485 614.531494,478.979950 
	C626.786255,498.241028 631.620667,519.373596 630.454468,541.997681 
	C630.281799,545.347839 629.500000,548.666687 629.000000,552.000000 
"/>
<path fill="none" opacity="1.000000" stroke="#000000" stroke-linecap="round" stroke-linejoin="round" stroke-width="16.000000"
	d="
M708.500000,473.500000 
	C696.710571,477.679810 693.500000,482.174652 693.500000,494.500000 
	C693.500000,522.000000 693.497192,549.500000 693.501587,577.000000 
	C693.503052,585.779358 698.329285,592.449585 706.500000,595.000000 
	C712.798340,596.966003 720.571594,593.633484 724.986633,586.991089 
	C726.685059,584.435730 727.008972,581.503906 727.007629,578.500000 
	C726.994934,549.166687 726.811523,519.831421 727.107239,490.501068 
	C727.204224,480.882233 717.785095,472.539368 709.000000,473.500000 
"/>
<path fill="none" opacity="1.000000" stroke="#000000" stroke-linecap="round" stroke-linejoin="round" stroke-width="16.000000"
	d="
M520.000000,471.500000 
	C512.184204,473.052582 504.661530,475.248932 497.457062,478.915619 
	C476.410706,489.626984 461.903931,514.782104 464.281921,540.520142 
	C466.628448,565.917786 485.558319,589.455627 512.514832,595.938416 
	C536.173401,601.628052 560.552063,592.921875 575.991211,573.992798 
	C585.952087,561.780334 590.662842,547.564026 589.865173,532.006897 
	C588.779114,510.824707 579.339355,493.940826 561.510193,481.984772 
	C549.053650,473.631470 535.257202,470.741669 520.500000,471.500000 
"/>
</svg>